<?xml version="1.0" encoding="UTF-8" standalone="no"?>
<!-- Created with Inkscape (http://www.inkscape.org/) -->

<svg
   xmlns:dc="http://purl.org/dc/elements/1.1/"
   xmlns:cc="http://creativecommons.org/ns#"
   xmlns:rdf="http://www.w3.org/1999/02/22-rdf-syntax-ns#"
   xmlns:svg="http://www.w3.org/2000/svg"
   xmlns="http://www.w3.org/2000/svg"
   version="1.1"
   width="503.75"
   height="503.75"
   id="svg3004"
   xml:space="preserve"><metadata
     id="metadata3010"><rdf:RDF><cc:Work
         rdf:about=""><dc:format>image/svg+xml</dc:format><dc:type
           rdf:resource="http://purl.org/dc/dcmitype/StillImage" /><dc:title></dc:title></cc:Work></rdf:RDF></metadata><defs
     id="defs3008" /><g
     transform="matrix(1.25,0,0,-1.25,0,503.75)"
     id="g3012"><g
       transform="scale(0.1,0.1)"
       id="g3014"><path
         d="m 2640.44,1234.73 c 28.2,22.66 55.55,46.94 81.72,73.11 26.17,26.17 50.45,53.49 73.1,81.74 -23.73,-27.43 -48.54,-54.22 -74.59,-80.28 -26.03,-26.01 -52.83,-50.84 -80.23,-74.57 z"
         id="path3016"
         style="fill:none;stroke:#192542;stroke-width:30;stroke-linecap:butt;stroke-linejoin:miter;stroke-miterlimit:10;stroke-opacity:1;stroke-dasharray:none" /><path
         d="M 1020.21,1012.92 C 867.922,1084.69 725.188,1183.42 599.309,1309.3 51.3789,1857.25 16.0078,2723.61 493.098,3312.71 -178.406,2526.9 -142.566,1344.05 600.77,600.73 1289.96,-88.4688 2356.92,-169.41 3135,357.641"
         id="path3018"
         style="fill:none;stroke:#192542;stroke-width:30;stroke-linecap:butt;stroke-linejoin:miter;stroke-miterlimit:10;stroke-opacity:1;stroke-dasharray:none" /><path
         d="m 2640.44,1234.73 c 27.4,23.73 54.2,48.56 80.23,74.57 26.05,26.06 50.86,52.85 74.59,80.28"
         id="path3020"
         style="fill:none;stroke:#192542;stroke-width:30;stroke-linecap:butt;stroke-linejoin:miter;stroke-miterlimit:10;stroke-opacity:1;stroke-dasharray:none" /><path
         d="m 3017.08,3009.78 c 152.32,-71.77 295.06,-170.54 420.97,-296.44 492.97,-492.97 571.04,-1243.67 234.32,-1818.34 527.03,778.09 446.1,1845.04 -243.1,2534.22 -743.3,743.34 -1926.16,779.2 -2711.973,107.69"
         id="path3022"
         style="fill:none;stroke:#192542;stroke-width:30;stroke-linecap:butt;stroke-linejoin:miter;stroke-miterlimit:10;stroke-opacity:1;stroke-dasharray:none" /><path
         d="M 3672.37,895 C 3602.11,791.27 3521.14,692.602 3429.27,600.73 3337.39,508.832 3238.72,427.898 3135,357.641"
         id="path3024"
         style="fill:none;stroke:#192542;stroke-width:30;stroke-linecap:butt;stroke-linejoin:miter;stroke-miterlimit:10;stroke-opacity:1;stroke-dasharray:none" /><path
         d="m 2795.26,1389.58 c -23.73,-27.43 -48.54,-54.22 -74.59,-80.28 -26.03,-26.01 -52.83,-50.84 -80.23,-74.57 C 2183.67,839.422 1545.05,765.531 1020.21,1012.92"
         id="path3026"
         style="fill:none;stroke:#192542;stroke-width:30;stroke-linecap:butt;stroke-linejoin:miter;stroke-miterlimit:10;stroke-opacity:1;stroke-dasharray:none" /><path
         d="m 717.297,3536.91 c -40.715,-32.97 -80.117,-68.34 -117.988,-106.21 -37.871,-37.87 -73.247,-77.28 -106.211,-117.99 34.082,39.89 69.949,78.78 107.683,116.51 37.735,37.73 76.629,73.61 116.516,107.69 z"
         id="path3028"
         style="fill:none;stroke:#192542;stroke-width:30;stroke-linecap:butt;stroke-linejoin:miter;stroke-miterlimit:10;stroke-opacity:1;stroke-dasharray:none" /><path
         d="M 717.297,3536.91 C 677.41,3502.83 638.516,3466.95 600.781,3429.22 563.047,3391.49 527.18,3352.6 493.098,3312.71 16.0078,2723.61 51.3789,1857.25 599.309,1309.3"
         id="path3030"
         style="fill:none;stroke:#192542;stroke-width:30;stroke-linecap:butt;stroke-linejoin:miter;stroke-miterlimit:10;stroke-opacity:1;stroke-dasharray:none" /><path
         d="m 1867.45,2111.48 -1.9,0 -84.51,-478.14 -93.13,0 147.87,754.65 248.64,-570.29 248.71,570.29 147.84,-754.65 -93.13,0 -84.48,478.14 -1.92,0 -217.02,-493.51 -216.97,493.51 z"
         id="path3032"
         style="fill:none;stroke:#192542;stroke-width:30;stroke-linecap:butt;stroke-linejoin:miter;stroke-miterlimit:10;stroke-opacity:1;stroke-dasharray:none" /><path
         d="m 1553.55,1841.68 c 0,101.78 -103.69,122.9 -184.34,122.9 l -55.68,0 0,-250.59 69.14,0 c 83.51,0 170.88,24.96 170.88,127.69 z"
         id="path3034"
         style="fill:none;stroke:#192542;stroke-width:30;stroke-linecap:butt;stroke-linejoin:miter;stroke-miterlimit:10;stroke-opacity:1;stroke-dasharray:none" /><path
         d="m 1492.11,2157.56 c 0,101.79 -69.13,119.07 -153.61,119.07 l -24.97,0 0,-240.04 23.04,0 c 85.44,0 155.54,17.29 155.54,120.97 z"
         id="path3036"
         style="fill:none;stroke:#192542;stroke-width:30;stroke-linecap:butt;stroke-linejoin:miter;stroke-miterlimit:10;stroke-opacity:1;stroke-dasharray:none" /><path
         d="m 2980.65,2274.7 -224.19,0 0,-641.36 -90.26,0 0,641.36 -171.85,0 0,82.58 460.26,0 c -48.36,133.1 -125.7,258.06 -232.45,364.83 -325.68,325.66 -819.96,379.51 -1201.69,162.03 -76.04,-43.32 -147.71,-97.17 -212.57,-162.03 -64.87,-64.88 -118.71,-136.55 -162.03,-212.56 -27.97,-49.1 -51.37,-100.06 -70.35,-152.27 l 236.09,0 c 136.34,0 264.99,-35.52 264.99,-198.76 0,-52.79 -28.8,-114.25 -77.76,-137.29 l 0,-1.92 c 85.45,-15.36 144.96,-98.89 144.96,-183.37 0,-145 -123.84,-202.6 -251.55,-202.6 l -168.97,0 0,643.35 -173.22,0 c -90.419,-334.34 -4.65,-706.35 257.84,-968.85 364.37,-364.36 939.88,-388.641 1332.54,-73.11 27.4,23.73 54.2,48.56 80.23,74.57 26.05,26.06 50.86,52.85 74.59,80.28 204.16,254.06 265.86,584.66 185.39,885.12 z"
         id="path3038"
         style="fill:none;stroke:#192542;stroke-width:30;stroke-linecap:butt;stroke-linejoin:miter;stroke-miterlimit:10;stroke-opacity:1;stroke-dasharray:none" /><path
         d="m 1520.47,2884.14 c 443.82,309.59 1017.63,351.42 1496.61,125.64"
         id="path3040"
         style="fill:none;stroke:#192542;stroke-width:30;stroke-linecap:butt;stroke-linejoin:miter;stroke-miterlimit:10;stroke-opacity:1;stroke-dasharray:none" /><path
         d="m 2640.44,1234.73 c -29.52,-23.72 -60.18,-45.27 -91.59,-65.15 l 10.62,0 c 27.54,20.68 54.59,42.32 80.97,65.15 z"
         id="path3042"
         style="fill:none;stroke:#192542;stroke-width:30;stroke-linecap:butt;stroke-linejoin:miter;stroke-miterlimit:10;stroke-opacity:1;stroke-dasharray:none" /><path
         d="m 2048.05,919.809 -770.41,0"
         id="path3044"
         style="fill:none;stroke:#192542;stroke-width:30;stroke-linecap:butt;stroke-linejoin:miter;stroke-miterlimit:10;stroke-opacity:1;stroke-dasharray:none" /><path
         d="m 1632.03,1091.2 -756.522,0 c 37.031,-22.75 74.836,-43.75 113.293,-62.99 l 865.269,0 c -75.71,12.26 -150.23,33.26 -222.04,62.99 z"
         id="path3046"
         style="fill:none;stroke:#192542;stroke-width:30;stroke-linecap:butt;stroke-linejoin:miter;stroke-miterlimit:10;stroke-opacity:1;stroke-dasharray:none" /><path
         d="m 2176.04,1028.21 154.87,0 c 38.45,19.23 76.22,40.24 113.24,62.99 l -46.07,0 c -71.8,-29.75 -146.34,-50.69 -222.04,-62.99 z"
         id="path3048"
         style="fill:none;stroke:#192542;stroke-width:30;stroke-linecap:butt;stroke-linejoin:miter;stroke-miterlimit:10;stroke-opacity:1;stroke-dasharray:none" /><path
         d="m 2210.04,973.09 -1100.16,0"
         id="path3050"
         style="fill:none;stroke:#192542;stroke-width:30;stroke-linecap:butt;stroke-linejoin:miter;stroke-miterlimit:10;stroke-opacity:1;stroke-dasharray:none" /><path
         d="m 599.309,1309.3 c 14.097,-14.1 28.433,-27.8 42.949,-41.22 l 708.002,0 c -14.37,12.82 -28.56,25.96 -42.36,39.76 -26.55,26.55 -51.21,54.28 -74.15,82.93 l -710.129,0 c 24.047,-27.85 49.262,-55.04 75.688,-81.47 z"
         id="path3052"
         style="fill:none;stroke:#192542;stroke-width:30;stroke-linecap:butt;stroke-linejoin:miter;stroke-miterlimit:10;stroke-opacity:1;stroke-dasharray:none" /><path
         d="m 407.246,1544.58 725.154,0 c -32.85,61.64 -58.85,125.96 -77.87,191.89 l -754.628,0 c 30.703,-65.94 66.524,-130.08 107.344,-191.89 z"
         id="path3054"
         style="fill:none;stroke:#192542;stroke-width:30;stroke-linecap:butt;stroke-linejoin:miter;stroke-miterlimit:10;stroke-opacity:1;stroke-dasharray:none" /><path
         d="m 523.621,1390.77 710.129,0 c -39.01,48.72 -72.79,100.23 -101.35,153.81 l -725.154,0 c 35.078,-53.13 73.828,-104.54 116.375,-153.81 z"
         id="path3056"
         style="fill:none;stroke:#192542;stroke-width:30;stroke-linecap:butt;stroke-linejoin:miter;stroke-miterlimit:10;stroke-opacity:1;stroke-dasharray:none" /><path
         d="m 299.902,1736.47 754.628,0 c -22.64,78.49 -35.39,159.21 -38.44,240.23 l -803.805,0 c 22.156,-81.9 51.328,-162.31 87.617,-240.23 z"
         id="path3058"
         style="fill:none;stroke:#192542;stroke-width:30;stroke-linecap:butt;stroke-linejoin:miter;stroke-miterlimit:10;stroke-opacity:1;stroke-dasharray:none" /><path
         d="m 1016.09,1976.7 c -3.78,100.75 7.46,201.95 33.95,299.93 l -887.075,0 c 6.265,-101.05 22.699,-201.57 49.32,-299.93 l 803.805,0 z"
         id="path3060"
         style="fill:none;stroke:#192542;stroke-width:30;stroke-linecap:butt;stroke-linejoin:miter;stroke-miterlimit:10;stroke-opacity:1;stroke-dasharray:none" /><path
         d="m 760.383,1169.58 720.477,0 c -45.52,28.81 -89.22,61.62 -130.6,98.5 l -708.002,0 c 38.047,-35.18 77.488,-68 118.125,-98.5 z"
         id="path3062"
         style="fill:none;stroke:#192542;stroke-width:30;stroke-linecap:butt;stroke-linejoin:miter;stroke-miterlimit:10;stroke-opacity:1;stroke-dasharray:none" /><path
         d="m 875.508,1091.2 756.522,0 c -52.05,21.55 -102.64,47.65 -151.17,78.38 l -720.477,0 c 37.41,-28.1 75.828,-54.24 115.125,-78.38 z"
         id="path3064"
         style="fill:none;stroke:#192542;stroke-width:30;stroke-linecap:butt;stroke-linejoin:miter;stroke-miterlimit:10;stroke-opacity:1;stroke-dasharray:none" /><path
         d="m 2444.15,1091.2 c 39.35,24.18 77.86,50.23 115.32,78.38 l -10.62,0 c -48.43,-30.65 -98.84,-56.87 -150.77,-78.38 l 46.07,0 z"
         id="path3066"
         style="fill:none;stroke:#192542;stroke-width:30;stroke-linecap:butt;stroke-linejoin:miter;stroke-miterlimit:10;stroke-opacity:1;stroke-dasharray:none" /><path
         d="m 2824.28,2602.47 c 55.61,-76.53 99.06,-159.14 130.33,-245.19 l 0.01,-0.02 747.44,0 c -45.61,85.69 -100.21,167.86 -163.63,245.21 l -714.15,0 z"
         id="path3068"
         style="fill:none;stroke:#192542;stroke-width:30;stroke-linecap:butt;stroke-linejoin:miter;stroke-miterlimit:10;stroke-opacity:1;stroke-dasharray:none" /><path
         d="m 1520.47,2884.14 c 9.56,5.44 19.24,10.6 28.93,15.7 l -5.58,0 c -7.79,-5.22 -15.64,-10.32 -23.35,-15.7 z"
         id="path3070"
         style="fill:none;stroke:#192542;stroke-width:30;stroke-linecap:butt;stroke-linejoin:miter;stroke-miterlimit:10;stroke-opacity:1;stroke-dasharray:none" /><path
         d="m 2663.77,2775.95 707.69,0 c -51.2,45.39 -104.74,86.72 -160.24,123.89 l -730,0 c 64.19,-33.82 125.45,-75.11 182.55,-123.89 z"
         id="path3072"
         style="fill:none;stroke:#192542;stroke-width:30;stroke-linecap:butt;stroke-linejoin:miter;stroke-miterlimit:10;stroke-opacity:1;stroke-dasharray:none" /><path
         d="m 2722.16,2722.11 c 37.73,-37.74 71.72,-77.8 102.12,-119.64 l 714.15,0 c -31.32,38.18 -64.73,75.22 -100.38,110.87 -21.7,21.7 -43.93,42.53 -66.59,62.61 l -707.69,0 c 19.97,-17.06 39.49,-34.94 58.39,-53.84 z"
         id="path3074"
         style="fill:none;stroke:#192542;stroke-width:30;stroke-linecap:butt;stroke-linejoin:miter;stroke-miterlimit:10;stroke-opacity:1;stroke-dasharray:none" /><path
         d="m 2004.84,3106.78 745.2,0"
         id="path3076"
         style="fill:none;stroke:#192542;stroke-width:30;stroke-linecap:butt;stroke-linejoin:miter;stroke-miterlimit:10;stroke-opacity:1;stroke-dasharray:none" /><path
         d="m 1694.11,2988.45 c -51.42,-26.32 -101.56,-55.96 -150.29,-88.61 l 5.58,0 c 75.8,39.91 155.57,69.5 237.34,88.61 l -92.63,0 z"
         id="path3078"
         style="fill:none;stroke:#192542;stroke-width:30;stroke-linecap:butt;stroke-linejoin:miter;stroke-miterlimit:10;stroke-opacity:1;stroke-dasharray:none" /><path
         d="m 1694.11,2988.45 92.63,0 c 150.04,35.08 306.54,34.99 456.58,0 l 817,0 c -14.33,7.33 -28.73,14.49 -43.24,21.33 -32.34,15.24 -65.15,29.17 -98.28,41.97 l -1083.07,0 c -48.03,-18.56 -95.32,-39.61 -141.62,-63.3 z"
         id="path3080"
         style="fill:none;stroke:#192542;stroke-width:30;stroke-linecap:butt;stroke-linejoin:miter;stroke-miterlimit:10;stroke-opacity:1;stroke-dasharray:none" /><path
         d="m 1835.73,3051.75 1083.07,0"
         id="path3082"
         style="fill:none;stroke:#192542;stroke-width:30;stroke-linecap:butt;stroke-linejoin:miter;stroke-miterlimit:10;stroke-opacity:1;stroke-dasharray:none" /><path
         d="m 2481.22,2899.84 730,0 c -48.89,32.75 -99.31,62.23 -150.9,88.61 l -817,0 c 81.95,-19.11 161.95,-48.58 237.9,-88.61 z"
         id="path3084"
         style="fill:none;stroke:#192542;stroke-width:30;stroke-linecap:butt;stroke-linejoin:miter;stroke-miterlimit:10;stroke-opacity:1;stroke-dasharray:none" /></g></g></svg>